# Blender v2.90.1 OBJ File: ''
# www.blender.org
mtllib window2n.mtl
o Room6.002
v -2.194350 7.451838 12.367976
v -5.362737 7.745766 12.367976
v 1.618807 5.121759 12.367976
v -1.549579 5.415687 12.367976
v 1.618808 7.745765 12.367976
v -1.549578 7.451838 12.367976
v -1.549578 7.745766 12.367976
v -2.194350 5.415687 12.367976
v -2.194350 5.121760 12.367976
v -5.362738 5.121761 12.367976
v 1.360406 3.358735 12.189184
v 1.360407 9.503100 12.189185
v -1.336100 9.503100 12.189185
v -2.113863 3.104556 12.189184
v -5.416438 3.104557 12.189184
v -5.113403 9.503101 12.189185
v -3.765150 9.503101 12.189185
v -3.778543 7.745766 12.367976
v -5.238070 8.624434 12.278581
v -3.778543 7.451838 12.367976
v -3.771847 8.624434 12.278581
v -3.778544 5.415688 12.367976
v -2.194350 6.433763 12.367976
v -3.778544 6.433763 12.367976
v -1.549578 6.433763 12.367976
v 0.034614 5.415687 12.367976
v 0.034615 7.451838 12.367976
v 0.034615 6.433763 12.367976
v 0.034614 5.121759 12.367976
v 0.012153 3.358735 12.189184
v 1.489606 4.240247 12.278581
v 0.023383 4.240247 12.278581
vt 0.375000 0.625000
vt 0.375000 0.625000
vt 0.375000 0.500000
vt 0.375000 0.375000
vt 0.375000 1.000000
vt 0.375000 0.875000
vt 0.500000 0.875000
vt 0.500000 1.000000
vt 0.000000 0.000000
vt 0.000000 0.000000
vt 0.000000 0.000000
vt 0.000000 0.000000
vt 0.000000 0.000000
vt 0.000000 0.000000
vt 0.000000 0.000000
vt 0.000000 0.000000
vt 0.625000 0.875000
vt 0.625000 1.000000
vt 0.375000 0.875000
vt 0.375000 0.750000
vt 0.000000 0.000000
vt 0.000000 0.000000
vt 0.000000 0.000000
vt 0.000000 0.000000
vt 0.000000 0.000000
vt 0.000000 0.000000
vt 0.625000 0.625000
vt 0.625000 0.625000
vt 0.625000 0.250000
vt 0.625000 0.375000
vt 0.625000 0.875000
vt 0.625000 1.000000
vn 0.0000 -0.1012 -0.9949
vn 0.0000 0.0000 -1.0000
vn -0.0000 -0.0883 0.9961
vn 0.0000 0.1012 0.9949
vn 0.0000 0.0000 1.0000
vn -0.0000 0.1009 -0.9949
usemtl lambert9SG
s off
f 21/1/1 19/2/1 16/3/1 17/4/1
f 8/5/2 22/6/2 24/7/2 23/8/2
f 15/9/3 14/10/3 9/11/3 10/12/3
f 7/13/4 5/14/4 12/15/4 13/16/4
f 23/8/2 24/7/2 20/17/2 1/18/2
f 18/19/1 2/20/1 19/2/1 21/1/1
f 6/21/5 25/22/5 28/23/5 27/24/5
f 25/22/5 4/25/5 26/26/5 28/23/5
f 32/27/6 31/28/6 11/29/6 30/30/6
f 29/31/6 3/32/6 31/28/6 32/27/6
