# Blender v2.90.1 OBJ File: ''
# www.blender.org
mtllib window3g.mtl
o Room6.002_Room6.006
v -2.194350 7.451838 12.204803
v 1.618807 5.121759 12.204803
v -1.549578 7.745766 12.204803
v -1.336100 9.503100 12.189185
v -5.113404 3.358736 12.189184
v 1.360406 3.358735 12.189184
v -3.778543 7.451838 12.204803
v -5.238070 5.405288 12.196994
v -3.765151 3.358736 12.189184
v -2.305624 5.405287 12.196994
v -3.771847 5.405287 12.196994
v 0.034615 7.745766 12.204803
v 0.012154 9.503100 12.189185
v -1.442839 8.624434 12.196994
v 0.023384 8.624434 12.196994
v 0.012153 3.358735 12.189184
v 1.489606 4.240247 12.196994
v 0.034614 5.121759 12.204803
v 0.023383 4.240247 12.196994
vt 0.000000 0.000000
vt 0.000000 0.000000
vt 0.000000 0.000000
vt 0.000000 0.000000
vt 0.000000 0.000000
vt 0.000000 0.000000
vt 0.000000 0.000000
vt 0.000000 0.000000
vt 0.000000 0.000000
vt 0.000000 0.000000
vt 0.000000 0.000000
vt 0.000000 0.000000
vt 0.000000 0.000000
vt 0.000000 0.000000
vt 0.000000 0.000000
vt 0.000000 0.000000
vt 0.000000 0.000000
vt 0.000000 0.000000
vt 0.000000 0.000000
vn 0.0000 -0.0038 1.0000
vn 0.0000 0.0089 1.0000
vn 0.0000 0.0089 -1.0000
usemtl lambert9SG
s off
f 11/1/1 8/2/1 5/3/1 9/4/1
f 1/5/1 7/6/1 11/1/1 10/7/1
f 14/8/2 15/9/2 13/10/2 4/11/2
f 3/12/2 12/13/2 15/9/2 14/8/2
f 19/14/3 17/15/3 6/16/3 16/17/3
f 18/18/3 2/19/3 17/15/3 19/14/3
