# Blender v2.90.1 OBJ File: ''
# www.blender.org
mtllib window1n.mtl
o Room6.002
v -2.194350 7.451838 12.367976
v -2.194350 7.745766 12.204803
v -5.362737 7.451839 12.367976
v 1.618807 5.415687 12.367976
v 1.618807 5.121759 12.367976
v -1.549579 5.121760 12.367976
v 1.618808 7.451837 12.367976
v -1.549578 7.745766 12.367976
v -2.194350 5.415687 12.367976
v -5.362738 5.121761 12.367976
v -5.362738 5.415688 12.367976
v 1.360406 3.358735 12.189184
v -1.336101 3.358735 12.189184
v -1.336100 9.503100 12.189185
v -2.113862 9.757279 12.189185
v -5.416438 3.104557 12.189184
v -3.778543 7.745766 12.204803
v -3.765150 9.757280 12.189185
v -2.154106 8.751523 12.196994
v -3.771847 8.751523 12.196994
v -3.778544 5.121760 12.367976
v -3.765151 3.104557 12.189184
v 0.034615 7.745766 12.367976
v -5.389588 4.113159 12.278581
v -3.771847 4.113158 12.278581
v 0.012154 9.503100 12.189185
v -1.442839 8.624434 12.278581
v 0.034614 5.415687 12.367976
v 0.023384 8.624434 12.278581
v 0.034615 7.451838 12.367976
v 1.618808 6.433762 12.367976
v 0.034615 6.433763 12.367976
vt 0.375000 0.375000
vt 0.375000 0.250000
vt 0.375000 0.250000
vt 0.375000 0.375000
vt 0.375000 0.375000
vt 0.375000 0.250000
vt 0.375000 1.000000
vt 0.375000 0.750000
vt 0.625000 0.750000
vt 0.625000 1.000000
vt 0.625000 0.625000
vt 0.625000 0.625000
vt 0.625000 0.750000
vt 0.625000 0.875000
vt 0.375000 0.625000
vt 0.375000 0.625000
vt 0.375000 0.375000
vt 0.375000 0.500000
vt 0.375000 0.875000
vt 0.500000 0.875000
vt 0.500000 1.000000
vt 0.375000 1.000000
vt 0.625000 0.375000
vt 0.625000 0.500000
vt 0.375000 0.750000
vt 0.375000 0.875000
vt 0.625000 0.875000
vt 0.625000 1.000000
vt 0.625000 0.750000
vt 0.625000 1.000000
vt 0.625000 0.250000
vt 0.625000 0.500000
vn 0.0000 -0.0078 -1.0000
vn 0.0000 0.0000 -1.0000
vn 0.0000 0.0883 -0.9961
vn 0.0000 0.1012 0.9949
vn 0.0000 0.1009 -0.9949
usemtl lambert9SG
s off
f 20/1/1 19/2/1 2/3/1 17/4/1
f 18/5/1 15/6/1 19/2/1 20/1/1
f 9/7/2 11/8/2 3/9/2 1/10/2
f 25/11/3 24/12/3 10/13/3 21/14/3
f 27/15/4 29/16/4 26/17/4 14/18/4
f 28/19/2 32/20/2 31/21/2 4/22/2
f 22/23/3 16/24/3 24/12/3 25/11/3
f 8/25/4 23/26/4 29/16/4 27/15/4
f 32/20/2 30/27/2 7/28/2 31/21/2
f 6/29/5 5/30/5 12/31/5 13/32/5
