# Blender v2.90.1 OBJ File: ''
# www.blender.org
mtllib window2g.mtl
o Room6.002_Room6.005
v -2.194350 7.745766 12.204803
v -5.362737 7.451839 12.204803
v 1.618807 5.415687 12.204803
v -1.549579 5.121760 12.204803
v 1.618808 7.451837 12.204803
v -5.362738 5.415688 12.204803
v -2.416896 9.503100 12.189185
v -1.336101 3.358735 12.189184
v -3.778543 7.745766 12.204803
v -3.778543 7.451838 12.204803
v -3.765150 9.503101 12.189185
v -2.305623 8.624434 12.196994
v -3.771847 8.624434 12.196994
v -3.778544 5.415688 12.204803
v -5.362738 6.433764 12.204803
v 1.618808 6.433762 12.204803
v -3.778544 6.433763 12.204803
v 0.034614 5.415687 12.204803
v 0.034615 7.451838 12.204803
v 0.034615 6.433763 12.204803
v 0.034614 5.121759 12.204803
v 0.012153 3.358735 12.189184
v -1.442840 4.240248 12.196994
v 0.023383 4.240247 12.196994
vt 0.500000 0.500000
vt 0.500000 0.375000
vt 0.625000 0.375000
vt 0.625000 0.500000
vt 0.000000 0.000000
vt 0.000000 0.000000
vt 0.000000 0.000000
vt 0.000000 0.000000
vt 0.000000 0.000000
vt 0.000000 0.000000
vt 0.000000 0.000000
vt 0.000000 0.000000
vt 0.000000 0.000000
vt 0.000000 0.000000
vt 0.375000 0.500000
vt 0.375000 0.375000
vt 0.000000 0.000000
vt 0.000000 0.000000
vt 0.312500 0.187500
vt 0.312500 0.250000
vt 0.000000 0.000000
vt 0.000000 0.000000
vt 0.625000 0.375000
vt 0.625000 0.500000
vn -0.0000 0.0000 1.0000
vn 0.0000 -0.0089 -1.0000
vn 0.0000 -0.0089 1.0000
usemtl lambert9SG
s off
f 15/1/1 17/2/1 10/3/1 2/4/1
f 12/5/2 13/6/2 11/7/2 7/8/2
f 1/9/2 9/10/2 13/6/2 12/5/2
f 19/11/1 20/12/1 16/13/1 5/14/1
f 6/15/1 14/16/1 17/2/1 15/1/1
f 20/12/1 18/17/1 3/18/1 16/13/1
f 24/19/3 23/20/3 8/21/3 22/22/3
f 21/23/3 4/24/3 23/20/3 24/19/3
